<svg width="27" height="27" viewBox="0 0 27 27" fill="none" xmlns="http://www.w3.org/2000/svg">
<path fill-rule="evenodd" clip-rule="evenodd" d="M18.9169 14.3241C19.405 14.2579 19.7812 13.8395 19.7812 13.3333C19.7812 12.781 19.3335 12.3333 18.7812 12.3333L10.3058 12.3333L13.6091 9.04455L13.7062 8.9326C13.9975 8.54174 13.9664 7.98612 13.6121 7.63034C13.2224 7.23898 12.5893 7.23763 12.1979 7.62733L7.17925 12.6247L7.17665 12.6277C7.14392 12.6605 7.11346 12.6957 7.08553 12.7328L7.08193 12.737C6.78996 13.129 6.8224 13.6865 7.17925 14.0419L12.1979 19.0392L12.3103 19.1358C12.7024 19.4254 13.2579 19.392 13.6121 19.0362L13.7087 18.9238C13.9984 18.5317 13.9649 17.9763 13.6091 17.622L10.3077 14.3333L18.7812 14.3333L18.9169 14.3241Z" fill="white"/>
<path opacity="0.1" fill-rule="evenodd" clip-rule="evenodd" d="M26.666 7.55467L26.666 19.1133C26.666 23.6515 23.4269 26.6667 18.778 26.6667L7.88735 26.6667C3.2433 26.6667 -0.000650406 23.6425 -0.000650406 19.1133L-0.000650406 7.55467C-0.000650406 3.01629 3.23869 0 7.88735 0L18.778 0C23.4267 0 26.666 3.01629 26.666 7.55467ZM24.666 19.1133L24.666 7.55467C24.666 4.154 22.3527 2 18.778 2L7.88735 2C4.31263 2 1.99935 4.154 1.99935 7.55467L1.99935 19.1133C1.99935 22.5054 4.31772 24.6667 7.88735 24.6667L18.778 24.6667C22.3531 24.6667 24.666 22.5137 24.666 19.1133Z" fill="white"/>
</svg>